<?xml version="1.0" encoding="utf-8"?>
<!-- Generator: Adobe Illustrator 23.0.1, SVG Export Plug-In . SVG Version: 6.00 Build 0)  -->
<svg version="1.1" id="Layer_1" xmlns="http://www.w3.org/2000/svg" xmlns:xlink="http://www.w3.org/1999/xlink" x="0px" y="0px"
	 viewBox="0 0 993.3 200.1" style="enable-background:new 0 0 993.3 200.1;" xml:space="preserve">
<style type="text/css">
	.st0{fill:#FFFFFF;}
</style>
<g>
	<path class="st0" d="M411.5,131.1l-0.2-0.1c-3.8-1.6-8.3,0.1-10.3,3.8l-0.1,0.2c-2.5,5.6-8.7,9.2-15.7,9.2
		c-7.1,0-13.3-3.6-15.7-9.2c-1.3-2.8-4.2-4.7-7.2-4.7c-0.6,0-1.8,0-3,0.5c-2,0.8-3.5,2.3-4.3,4.3c-0.8,1.9-0.7,4,0.1,5.9
		c4.9,11.4,16.7,18.7,30.3,18.7c13.1,0,24.9-7.2,30-18.3C417.3,137.5,415.5,133,411.5,131.1z"/>
	<path class="st0" d="M442.8,0c-3.3,0-6.1,1.2-8.5,3.5c-2.3,2.3-3.5,5.2-3.5,8.5v64.3c-13.1-11.6-28.7-17.5-46.6-17.5
		c-19.4,0-36.2,7-49.9,20.7c-6.2,6.2-11,13.1-14.4,20.5c-3.4-7.4-8.2-14.3-14.4-20.5c-13.7-13.7-30.5-20.7-49.9-20.7
		c-19.4,0-36.2,7-49.9,20.7c-4,4-7.4,8.3-10.3,12.8c-2.7-6.2-6.7-11.9-11.8-17.1c-10.9-10.9-24.2-16.4-39.6-16.4
		s-28.7,5.5-39.6,16.4c-1.6,1.6-3,3.2-4.4,4.9c-1.4-1.7-2.8-3.3-4.4-4.9C84.6,64.4,71.3,58.8,56,58.8c-12,0-22.8,3.4-32.1,10.1
		c-0.4-2.5-1.5-4.7-3.4-6.5c-2.3-2.3-5.2-3.5-8.5-3.5c-3.3,0-6.1,1.2-8.5,3.5S0,67.6,0,70.9V188c0,3.3,1.2,6.1,3.5,8.5
		c2.3,2.3,5.2,3.5,8.5,3.5c3.3,0,6.1-1.2,8.5-3.5c2.3-2.3,3.5-5.2,3.5-8.5v-73.2c0-8.9,3.1-16.3,9.4-22.6c6.3-6.3,13.7-9.4,22.6-9.4
		c8.9,0,16.3,3.1,22.6,9.4c6.3,6.3,9.4,13.7,9.4,22.6V188c0,3.3,1.2,6.1,3.5,8.5c2.3,2.3,5.2,3.5,8.5,3.5c3.3,0,6.1-1.2,8.5-3.5
		c2.3-2.3,3.5-5.2,3.5-8.5v-73.2c0-8.9,3.1-16.3,9.4-22.6c6.3-6.3,13.7-9.4,22.6-9.4c8.9,0,16.3,3.1,22.6,9.4
		c6.3,6.3,9.4,13.7,9.4,22.6V188c0,3.3,1.2,6.1,3.5,8.5c2.3,2.3,5.2,3.5,8.5,3.5c3.3,0,6.1-1.2,8.5-3.5c2.3-2.3,3.5-5.2,3.5-8.5V173
		c1.8,2.2,3.6,4.3,5.7,6.4c13.7,13.7,30.5,20.7,49.9,20.7c17.6,0,33.1-5.7,46-17l0.1-0.1c2.3-2.4,3.4-5.2,3.4-8.5
		c0-3.3-1.2-6.1-3.5-8.5c-2.3-2.3-5.2-3.5-8.5-3.5c-2.8,0-5.3,0.9-7.5,2.5l-0.1,0.1c-8.3,7.3-18.4,11-30,11
		c-12.8,0-23.9-4.6-33-13.6c-6.1-6.1-10.2-13.1-12.2-20.9H314c0.2,0,0.3,0,0.5,0c2.3,14.4,8.9,27.1,19.7,37.9
		c13.7,13.7,30.5,20.7,49.9,20.7c19.4,0,36.2-7,49.9-20.7c13.7-13.7,20.7-30.5,20.7-49.9V12c0-3.3-1.2-6.1-3.5-8.5
		C448.9,1.2,446.1,0,442.8,0z M384.2,176c-12.8,0-23.9-4.6-33-13.6c-9-9-13.6-20.1-13.6-33s4.6-23.9,13.6-33c9-9,20.1-13.6,33-13.6
		s23.9,4.6,33,13.6c9,9,13.6,20.1,13.6,33s-4.6,23.9-13.6,33C408.1,171.4,397,176,384.2,176z M255.5,82.9c12.8,0,23.9,4.6,33,13.6
		c6.1,6.1,10.2,13.1,12.2,20.9h-90.3c2-7.8,6.1-14.8,12.2-20.9C231.5,87.5,242.6,82.9,255.5,82.9z"/>
	<path class="st0" d="M984,136.5c-3.2-3.3-8.5-6.3-16.4-9.2l-60-19.9c-2.9-1.1-4.3-2.9-4.5-5.8c0-2.7,0.8-4.9,2.4-6.9
		c7.6-7.9,17.9-11.9,30.7-11.9c12.8,0,23.9,4.6,33,13.6c0.7,0.7,1.9,1.9,3.5,3.6c2.1,2.2,4.8,3.3,8.1,3.3c3.3,0,6.1-1.2,8.5-3.5
		c2.3-2.3,3.5-5.2,3.5-8.4c0.1-2.8-0.7-5.3-2.4-7.3c-14.9-16.8-33.2-25.3-54.2-25.3c-19.4,0-35.4,6.3-47.5,18.6
		c-6.4,6.4-9.7,14.1-9.7,22.7c0,8.6,3.1,16.1,9.3,22.2c3.2,3.3,8.5,6.3,16.3,9.2l60.1,19.9c2.9,1.1,4.3,2.9,4.5,5.8
		c0,2.7-0.8,4.9-2.4,6.9c-7.6,7.9-17.9,11.9-30.7,11.9c-12.8,0-23.9-4.6-33-13.6c-0.7-0.7-1.9-1.9-3.5-3.6c-2.1-2.2-4.8-3.3-8.1-3.3
		c-3.3,0-6.1,1.2-8.5,3.5c-2.3,2.3-3.5,5.2-3.5,8.5c0,2.6,0.8,5,2.2,7l0.1,0.2c0.5,0.5,1,1.1,1.5,1.6c-0.9-0.2-1.8-0.3-2.8-0.3
		c-18.2,0-27-8.8-27-27V82.9H871c3.3,0,6.1-1.2,8.5-3.5c2.3-2.3,3.5-5.2,3.5-8.5c0-3.3-1.2-6.1-3.5-8.5c-2.3-2.3-5.2-3.5-8.5-3.5
		h-17.4V12.3c0-3.3-1.2-6.1-3.5-8.5c-2.3-2.3-5.2-3.5-8.5-3.5c-3.3,0-6.1,1.2-8.5,3.5s-3.5,5.2-3.5,8.5v46.6h-7.5
		c-3.3,0-6.1,1.2-8.5,3.5c-0.9,0.9-1.6,1.9-2.2,2.9c-0.6-1-1.3-2-2.2-2.9c-2.3-2.3-5.2-3.5-8.5-3.5c-3.3,0-6.1,1.2-8.5,3.5
		s-3.5,5.2-3.5,8.5v1.4c-0.5-0.9-1.2-1.7-2-2.5c-2.3-2.3-5.2-3.5-8.5-3.5h-27.2v-5.1c0-24.8,12-36.8,36.8-36.8c0.2,0,0.3,0,0.5,0
		c-1.4,2.2-2.1,4.8-2.1,7.5c0,3.9,1.4,7.4,4.3,10.2c2.8,2.8,6.3,4.3,10.2,4.3c3.9,0,7.4-1.4,10.2-4.3c2.8-2.8,4.3-6.3,4.3-10.2
		c0-3.9-1.4-7.4-4.3-10.2c-2.8-2.8-6.3-4.3-10.2-4.3c-0.7,0-1.3,0.1-2,0.1c0.8-1.6,1.2-3.3,1.2-5.2c0-3.3-1.2-6.1-3.5-8.5
		c-2.3-2.3-5.2-3.5-8.5-3.5c-40.4,0-60.8,20.5-60.8,60.8v5.1h-7.5c-3.3,0-6.1,1.2-8.5,3.5c-2.3,2.3-3.4,5-3.5,8.1
		c-13.4-12.6-29.6-19-48.2-19c-19.4,0-36.2,7-49.9,20.7c-5,5-9.1,10.4-12.3,16.2c-3.1-6.3-7.4-12.2-12.7-17.6
		c-12.8-12.8-28.4-19.3-46.5-19.3c-15.9,0-29.9,5-41.7,14.9v-2.9c0-3.3-1.2-6.1-3.5-8.5c-2.3-2.3-5.2-3.5-8.5-3.5
		c-3.3,0-6.1,1.2-8.5,3.5c-2.3,2.3-3.5,5.2-3.5,8.5V188c0,3.3,1.2,6.1,3.5,8.5c2.3,2.3,5.2,3.5,8.5,3.5c3.3,0,6.1-1.2,8.5-3.5
		c2.3-2.3,3.5-5.2,3.5-8.5v-63.5c0-11.5,4.1-21.4,12.2-29.5c8.1-8.1,18-12.2,29.5-12.2c11.4,0,21.4,4.1,29.5,12.2
		c8.1,8.1,12.2,18,12.2,29.5V188c0,3.3,1.2,6.1,3.5,8.5c2.3,2.3,5.2,3.5,8.5,3.5c3.3,0,6.1-1.2,8.5-3.5c2.3-2.3,3.5-5.2,3.5-8.5V173
		c1.8,2.2,3.6,4.3,5.7,6.4c13.7,13.7,30.5,20.7,49.9,20.7c17.6,0,33.1-5.7,46-17l0.1-0.1c2.3-2.4,3.4-5.2,3.4-8.5
		c0-3.3-1.2-6.1-3.5-8.5c-2.3-2.3-5.2-3.5-8.5-3.5c-2.8,0-5.3,0.9-7.5,2.5l-0.1,0.1c-8.3,7.3-18.4,11-30,11
		c-12.8,0-23.9-4.6-33-13.6c-6.1-6.1-10.2-13.1-12.2-20.9H718c3.3,0,6.1-1.2,8.5-3.5c0.2-0.2,0.4-0.4,0.6-0.6V188
		c0,3.3,1.2,6.1,3.5,8.5c2.3,2.3,5.2,3.5,8.5,3.5c3.3,0,6.1-1.2,8.5-3.5c2.3-2.3,3.5-5.2,3.5-8.5V90.2h27.2c3.3,0,6.1-1.2,8.5-3.5
		c0.8-0.8,1.4-1.6,2-2.5V188c0,3.3,1.2,6.1,3.5,8.5c2.3,2.3,5.2,3.5,8.5,3.5c3.3,0,6.1-1.2,8.5-3.5c2.3-2.3,3.5-5.2,3.5-8.5V78.4
		c0.3,0.3,0.5,0.6,0.8,0.9c2.3,2.3,5.2,3.5,8.5,3.5h7.5V149c0,33.9,17.2,51.1,51.1,51.1c3.3,0,6.1-1.2,8.5-3.5
		c2.3-2.3,3.5-5.2,3.5-8.5c0-1.2-0.2-2.4-0.5-3.5c12.7,10.3,27.5,15.5,44,15.5c19.4,0,35.4-6.3,47.5-18.6c6.4-6.4,9.7-14.1,9.7-22.7
		C993.3,150.1,990.2,142.6,984,136.5z M659.4,82.9c12.8,0,23.9,4.6,33,13.6c6.1,6.1,10.2,13.1,12.2,20.9h-90.3
		c2-7.8,6.1-14.8,12.2-20.9C635.5,87.5,646.6,82.9,659.4,82.9z M718.2,90.1c0.5,0,0.9,0.1,1.4,0.1h7.5v18.5
		C725.1,102.1,722.2,95.9,718.2,90.1z"/>
</g>
</svg>
